<svg xmlns="http://www.w3.org/2000/svg"
     xmlns:xlink="http://www.w3.org/1999/xlink" version="1.1" width="128"
     height="128" viewBox="0 0 100 100">
    <defs>
        <g id="background">
            <path fill="url(#background-gradient)" stroke="none"
                  d=" M 97.2 2.8 Q 94.35 0 90.6 0 L 9.4 0 Q 5.55 0 2.8 2.8 0 5.55 0 9.4 L 0 90.6 Q 0 94.35 2.8 97.2 5.55 100 9.4 100 L 90.6 100 Q 94.35 100 97.2 97.2 100 94.35 100 90.6 L 100 9.4 Q 100 5.55 97.2 2.8 Z"/>
        </g>
        <g id="bottom-1">
            <path fill="#FFFFFF" fill-opacity="0.30196078431372547"
                  stroke="none"
                  d=" M 90.6 2.35 Q 94.45 2.35 97.3 5.05 99.9 7.65 100 11.55 L 100 9.4 Q 100 5.4 97.3 2.7 94.45 0 90.6 0 L 9.4 0 Q 5.4 0 2.7 2.7 0 5.4 0 9.4 L 0 11.55 Q 0.1 7.65 2.7 5.05 5.4 2.35 9.4 2.35 L 90.6 2.35 Z"/>
        </g>
        <mask id="mask">
            <path fill="#FFFFFF" stroke="none"
                  d=" M 97.2 2.8 Q 94.35 0 90.6 0 L 9.4 0 Q 5.55 0 2.8 2.8 0 5.55 0 9.4 L 0 90.6 Q 0 94.35 2.8 97.2 5.55 100 9.4 100 L 90.6 100 Q 94.35 100 97.2 97.2 100 94.35 100 90.6 L 100 9.4 Q 100 5.55 97.2 2.8 Z"/>
        </mask>
        <linearGradient id="background-gradient" x1="0" y1="0" y2="1" x2="0">
            <stop stop-color="#404040" offset="0%"/>
            <stop stop-color="#303030" offset="100%"/>
        </linearGradient>
        <filter id="drop-shadow">
            <feGaussianBlur in="SourceAlpha" stdDeviation="2"/>
            <feComponentTransfer>
                <feFuncA type="linear" slope="0.7"/>
            </feComponentTransfer>
            <feOffset dx="-3.5355339059327378" dy="3.123724356957945"
                      result="offsetblur"/>
            <feFlood flood-color="#000"/>
            <feComposite in2="offsetblur" operator="in"/>
            <feMerge>
                <feMergeNode/>
                <feMergeNode in="SourceGraphic"/>
            </feMerge>
        </filter>

        <g transform="scale(3.3333333333333335) translate(0 2.5)" id="picture">
            <path d="M27 0H3C1.3 0 0 1.3 0 3v16c0 1.7 1.3 3 3 3h1v1c0 1.1.9 2 2 2h2c1.1 0 2-.9 2-2v-1h10v1c0 1.1.9 2 2 2h2c1.1 0 2-.9 2-2v-1h1c1.7 0 3-1.3 3-3V3c0-1.7-1.3-3-3-3zM8 23H6v-1h2v1zm16 0h-2v-1h2v1zm4-4c0 .6-.4 1-1 1H3c-.6 0-1-.4-1-1V3c0-.6.4-1 1-1h24c.6 0 1 .4 1 1v16z M14 11c0-2.8-2.2-5-5-5s-5 2.2-5 5 2.2 5 5 5c2.1 0 4-1.4 4.7-3.2 0-.1.1-.2.1-.2.1-.6.2-1.1.2-1.6zm-1 0c0 .3-.1.7-.1 1H11c-.6 0-1-.4-1-1s.4-1 1-1h1.9c0 .3.1.7.1 1zm-4 4c-2.2 0-4-1.8-4-4s1.8-4 4-4c1.5 0 2.7.8 3.4 2H11c-1.1 0-2 .9-2 2s.9 2 2 2h1.4c-.7 1.2-1.9 2-3.4 2zM25.5 5c-.3 0-.5.2-.5.5v11c0 .3.2.5.5.5s.5-.2.5-.5v-11c0-.3-.2-.5-.5-.5z"/>
        </g>
        <linearGradient id="picture-gradient" x1="0" y1="0" y2="1" x2="0">
            <stop stop-color="#ffffff" offset="100%"/>
            <stop stop-color="#ffffff" offset="100%"/>
        </linearGradient>
    </defs>
    <use xlink:href="#background" fill="url(#background-gradient)"/>
    <g mask="url(#mask)">
        <g transform="translate(50 50)
                      translate(0 0)
                      scale(0.6000000000000001)
                      translate(-50 -50)">
            <g filter="url(#drop-shadow)">
                <use xlink:href="#picture" fill="url(#picture-gradient)"/>
            </g>
            <path fill="#393939"
                  opacity=".324" transform="translate(0 21)"/>
        </g>
    </g>
    <use xlink:href="#bottom-1"/>
</svg>
