<svg xmlns="http://www.w3.org/2000/svg" width="18.888" height="23.61" viewBox="0 0 18.888 23.61">
  <path id="Money_pouch" data-name="Money pouch" d="M13.444,6.167a1.266,1.266,0,0,0,.586-.222,4.532,4.532,0,0,0,.921-.775A6.727,6.727,0,0,0,16.423,2.72a1.264,1.264,0,0,0-.432-.284A6.568,6.568,0,0,0,13.444,2a6.567,6.567,0,0,0-2.546.437,1.265,1.265,0,0,0-.432.284A6.727,6.727,0,0,0,11.937,5.17a4.532,4.532,0,0,0,.921.775A1.266,1.266,0,0,0,13.444,6.167Zm0,2.083a5.692,5.692,0,0,0-2.791.976,14.029,14.029,0,0,0-3.169,2.742A13.113,13.113,0,0,0,4,20.171c0,1.358,1,2.706,2.892,3.779a13.756,13.756,0,0,0,13.1,0c1.9-1.073,2.892-2.421,2.892-3.779a13.113,13.113,0,0,0-3.484-8.2,14.028,14.028,0,0,0-3.169-2.742A5.693,5.693,0,0,0,13.444,8.25Zm2.22,12.2a3.419,3.419,0,0,1-1.334.638v.979a.885.885,0,1,1-1.771,0v-1a3.22,3.22,0,0,1-1.048-.481,3.7,3.7,0,0,1-1.237-1.566.885.885,0,0,1,1.619-.718,1.942,1.942,0,0,0,.635.834,1.668,1.668,0,0,0,.993.278,1.711,1.711,0,0,0,1.044-.35.8.8,0,0,0,.355-.6c0-.447-.14-.6-.241-.669a1.541,1.541,0,0,0-.885-.2,3.386,3.386,0,0,1-2.475-.864,2.64,2.64,0,0,1-.755-1.9,2.38,2.38,0,0,1,.824-1.822,2.756,2.756,0,0,1,1.171-.585v-.986a.885.885,0,0,1,1.771,0v.961a3.293,3.293,0,0,1,.76.233,2.86,2.86,0,0,1,1.3,1.193.885.885,0,1,1-1.526.9,1.093,1.093,0,0,0-.507-.477A2.2,2.2,0,0,0,13.5,14.1a1.388,1.388,0,0,0-.957.254.611.611,0,0,0-.211.483.875.875,0,0,0,.233.641,1.671,1.671,0,0,0,1.226.348,3.252,3.252,0,0,1,1.927.538,2.472,2.472,0,0,1,.969,2.1A2.554,2.554,0,0,1,15.664,20.452Z" transform="translate(-4 -2)" fill="#8f95b2" fill-rule="evenodd"/>
</svg>
