<svg id="UI_icon_location_filled" data-name="UI icon/location/filled" xmlns="http://www.w3.org/2000/svg" width="17.069" height="22.072" viewBox="0 0 17.069 22.072">
  <path id="Subtract" d="M8.535,22.072a1.785,1.785,0,0,1-1.4-.7c-2.265-2.87-5.224-6.968-5.253-7.009l-.007-.009A8.932,8.932,0,0,1,0,8.836,8.7,8.7,0,0,1,8.535,0a8.7,8.7,0,0,1,8.534,8.836A8.932,8.932,0,0,1,15.2,14.357h0c0,.005-.031.045-.082.115-1.167,1.6-3.391,4.635-5.182,6.9A1.787,1.787,0,0,1,8.535,22.072Zm0-16.573A3.248,3.248,0,0,0,5.348,8.8a3.248,3.248,0,0,0,3.187,3.3,3.248,3.248,0,0,0,3.186-3.3A3.248,3.248,0,0,0,8.535,5.5Z" fill="#8f95b2"/>
</svg>
