<svg xmlns="http://www.w3.org/2000/svg" xmlns:xlink="http://www.w3.org/1999/xlink" width="29.553" height="29.553" viewBox="0 0 29.553 29.553">
  <defs>
    <clipPath id="clip-path">
      <rect id="Rectangle_1631" data-name="Rectangle 1631" width="29.553" height="29.553" fill="#8f95b2"/>
    </clipPath>
  </defs>
  <g id="Group_6331" data-name="Group 6331" clip-path="url(#clip-path)">
    <path id="Path_17555" data-name="Path 17555" d="M18.984.874V3.963a.873.873,0,1,1-1.746,0V.874a.873.873,0,1,1,1.746,0" transform="translate(-3.334)" fill="#8f95b2"/>
    <path id="Path_17556" data-name="Path 17556" d="M18.984,31.518v3.09a.874.874,0,0,1-1.491.618.86.86,0,0,1-.255-.618v-3.09a.873.873,0,0,1,1.746,0" transform="translate(-3.334 -5.927)" fill="#8f95b2"/>
    <path id="Path_17557" data-name="Path 17557" d="M8.72,8.72a.89.89,0,0,1-1.236,0L5.3,6.537A.874.874,0,0,1,6.537,5.3L8.72,7.484a.871.871,0,0,1,0,1.236" transform="translate(-0.976 -0.976)" fill="#8f95b2"/>
    <path id="Path_17558" data-name="Path 17558" d="M30.388,30.388a.871.871,0,0,1-1.236,0l-2.183-2.183a.874.874,0,0,1,1.237-1.237l2.183,2.183a.871.871,0,0,1,0,1.236" transform="translate(-5.167 -5.167)" fill="#8f95b2"/>
    <path id="Path_17559" data-name="Path 17559" d="M4.836,18.111a.88.88,0,0,1-.874.874H.874a.874.874,0,0,1,0-1.747H3.963a.876.876,0,0,1,.874.874" transform="translate(0 -3.334)" fill="#8f95b2"/>
    <path id="Path_17560" data-name="Path 17560" d="M35.48,18.111a.88.88,0,0,1-.873.874h-3.09a.874.874,0,1,1,0-1.747h3.09a.872.872,0,0,1,.873.874" transform="translate(-5.927 -3.334)" fill="#8f95b2"/>
    <path id="Path_17561" data-name="Path 17561" d="M8.976,27.587a.844.844,0,0,1-.256.618L6.537,30.388a.893.893,0,0,1-1.236,0,.867.867,0,0,1,0-1.229l2.183-2.19a.894.894,0,0,1,.618-.255.868.868,0,0,1,.618.255.856.856,0,0,1,.256.618" transform="translate(-0.976 -5.167)" fill="#8f95b2"/>
    <path id="Path_17562" data-name="Path 17562" d="M30.644,5.92a.857.857,0,0,1-.256.618L28.205,8.721a.876.876,0,0,1-1.236,0,.872.872,0,0,1-.256-.619.9.9,0,0,1,.256-.618L29.151,5.3a.9.9,0,0,1,.619-.255.867.867,0,0,1,.617.255.857.857,0,0,1,.256.618" transform="translate(-5.167 -0.976)" fill="#8f95b2"/>
    <path id="Path_17563" data-name="Path 17563" d="M9.443,21.173V13.667h1.516v2.955h2.97V13.667h1.515v7.506H13.928V17.892h-2.97v3.281Z" transform="translate(-1.826 -2.643)" fill="#8f95b2"/>
    <path id="Path_17564" data-name="Path 17564" d="M18.831,21.173V13.667H22.02a5.459,5.459,0,0,1,1.749.2,1.718,1.718,0,0,1,.873.719,2.155,2.155,0,0,1,.327,1.182,2,2,0,0,1-.5,1.4,2.384,2.384,0,0,1-1.485.694,3.526,3.526,0,0,1,.811.63,8.506,8.506,0,0,1,.863,1.219l.916,1.464H23.767l-1.1-1.633a10.76,10.76,0,0,0-.8-1.1,1.164,1.164,0,0,0-.457-.313,2.512,2.512,0,0,0-.762-.085h-.307v3.134Zm1.516-4.331h1.121a5.8,5.8,0,0,0,1.362-.092.808.808,0,0,0,.425-.318.977.977,0,0,0,.154-.563.9.9,0,0,0-.2-.612.93.93,0,0,0-.571-.294q-.184-.027-1.106-.026H20.347Z" transform="translate(-3.642 -2.643)" fill="#8f95b2"/>
  </g>
</svg>
