<svg id="Group_6330" data-name="Group 6330" xmlns="http://www.w3.org/2000/svg" xmlns:xlink="http://www.w3.org/1999/xlink" width="29.553" height="29.553" viewBox="0 0 29.553 29.553">
  <defs>
    <clipPath id="clip-path">
      <rect id="Rectangle_1614" data-name="Rectangle 1614" width="29.553" height="29.553" fill="#8f95b2"/>
    </clipPath>
  </defs>
  <g id="Group_6268" data-name="Group 6268" clip-path="url(#clip-path)">
    <path id="Path_17508" data-name="Path 17508" d="M18.984.874V3.963a.873.873,0,1,1-1.746,0V.874a.873.873,0,1,1,1.746,0" transform="translate(-3.334)" fill="#8f95b2"/>
    <path id="Path_17509" data-name="Path 17509" d="M18.984,31.518v3.09a.874.874,0,0,1-1.491.618.86.86,0,0,1-.255-.618v-3.09a.873.873,0,0,1,1.746,0" transform="translate(-3.334 -5.927)" fill="#8f95b2"/>
    <path id="Path_17510" data-name="Path 17510" d="M8.72,8.72a.89.89,0,0,1-1.236,0L5.3,6.537A.874.874,0,0,1,6.537,5.3L8.72,7.484a.871.871,0,0,1,0,1.236" transform="translate(-0.976 -0.976)" fill="#8f95b2"/>
    <path id="Path_17511" data-name="Path 17511" d="M30.388,30.388a.871.871,0,0,1-1.236,0l-2.183-2.183a.874.874,0,0,1,1.236-1.236l2.183,2.183a.871.871,0,0,1,0,1.236" transform="translate(-5.167 -5.167)" fill="#8f95b2"/>
    <path id="Path_17512" data-name="Path 17512" d="M4.836,18.111a.88.88,0,0,1-.874.874H.874a.874.874,0,1,1,0-1.747H3.963a.876.876,0,0,1,.874.874" transform="translate(0 -3.334)" fill="#8f95b2"/>
    <path id="Path_17513" data-name="Path 17513" d="M35.48,18.111a.88.88,0,0,1-.873.874h-3.09a.874.874,0,1,1,0-1.747h3.09a.872.872,0,0,1,.873.874" transform="translate(-5.927 -3.334)" fill="#8f95b2"/>
    <path id="Path_17514" data-name="Path 17514" d="M8.976,27.587a.844.844,0,0,1-.256.618L6.537,30.388a.893.893,0,0,1-1.236,0,.867.867,0,0,1,0-1.229l2.183-2.19a.894.894,0,0,1,.618-.255.868.868,0,0,1,.618.255.856.856,0,0,1,.256.618" transform="translate(-0.976 -5.167)" fill="#8f95b2"/>
    <path id="Path_17515" data-name="Path 17515" d="M30.644,5.92a.857.857,0,0,1-.257.618L28.205,8.721a.876.876,0,0,1-1.236,0,.872.872,0,0,1-.256-.619.9.9,0,0,1,.256-.618L29.151,5.3a.9.9,0,0,1,.619-.255.867.867,0,0,1,.617.255.857.857,0,0,1,.257.618" transform="translate(-5.167 -0.976)" fill="#8f95b2"/>
    <path id="Path_17516" data-name="Path 17516" d="M9.446,17.43a4.816,4.816,0,0,1,.345-1.939,3.568,3.568,0,0,1,.7-1.036,2.96,2.96,0,0,1,.978-.681,4.15,4.15,0,0,1,1.629-.3,3.547,3.547,0,0,1,2.673,1.036,3.966,3.966,0,0,1,1,2.882,3.96,3.96,0,0,1-1,2.864,3.52,3.52,0,0,1-2.661,1.034,3.558,3.558,0,0,1-2.681-1.028,3.907,3.907,0,0,1-1-2.834m1.573-.052a2.833,2.833,0,0,0,.593,1.946,2.038,2.038,0,0,0,3,.006,2.89,2.89,0,0,0,.586-1.973,2.84,2.84,0,0,0-.57-1.938,1.926,1.926,0,0,0-1.513-.64,1.94,1.94,0,0,0-1.521.647,2.859,2.859,0,0,0-.578,1.952" transform="translate(-1.827 -2.606)" fill="#8f95b2"/>
    <path id="Path_17517" data-name="Path 17517" d="M20.014,21.194V13.635h2.449a8.967,8.967,0,0,1,1.816.112,1.98,1.98,0,0,1,1.087.741A2.343,2.343,0,0,1,25.8,15.96a2.478,2.478,0,0,1-.252,1.171,2.074,2.074,0,0,1-.642.744,2.232,2.232,0,0,1-.792.359,8.672,8.672,0,0,1-1.583.108h-1v2.852Zm1.526-6.282v2.145h.836a3.961,3.961,0,0,0,1.207-.118.994.994,0,0,0,.477-.372,1.02,1.02,0,0,0,.173-.588.981.981,0,0,0-.242-.681,1.066,1.066,0,0,0-.614-.334,7.258,7.258,0,0,0-1.1-.052Z" transform="translate(-3.871 -2.637)" fill="#8f95b2"/>
  </g>
</svg>
