<?xml version="1.0" encoding="UTF-8"?><svg id="Layer_2" xmlns="http://www.w3.org/2000/svg" viewBox="0 0 16 19"><defs><style>.cls-1{fill:#8f95b2;}</style></defs><g id="Layer_1-2"><g><path id="Union" class="cls-1" d="M16,18c0,.55-.45,1-1,1s-1-.45-1-1v-6h-3c-.55,0-1-.45-1-1V5c0-2.76,2.24-5,5-5,.55,0,1,.45,1,1V18Z"/><path id="Union-2" class="cls-1" d="M2,1c0-.55-.45-1-1-1S0,.45,0,1V6c0,1.82,1.23,3.42,3,3.87v8.13c0,.55,.45,1,1,1s1-.45,1-1V9.87c1.77-.46,3-2.05,3-3.87V1c0-.55-.45-1-1-1s-1,.45-1,1V5h-1V1c0-.55-.45-1-1-1s-1,.45-1,1V5h-1V1Z"/></g></g></svg>