<?xml version="1.0" encoding="UTF-8"?><svg id="Layer_2" xmlns="http://www.w3.org/2000/svg" viewBox="0 0 20 19.16"><defs><style>.cls-1{fill:#70767e;}</style></defs><g id="Layer_1-2"><g><path id="Union" class="cls-1" d="M19,19.16H1c-.55,0-1-.45-1-1s.45-1,1-1h1V4.5c0-1.38,.94-2.58,2.27-2.91L10.27,.09c1.6-.4,3.23,.57,3.64,2.17,.06,.24,.09,.49,.09,.74v2.16h1c1.66,0,3,1.34,3,3h0v9h1c.55,0,1,.45,1,1s-.45,1-1,1ZM14,7.16v10h2V8.16c0-.55-.45-1-1-1h-1Zm-3-5.16c-.08,0-.16,.01-.24,.03l-6,1.5c-.44,.11-.76,.51-.76,.97v12.66H12V3c0-.55-.45-1-1-1Z"/><path id="Vector_511_Stroke_" class="cls-1" d="M6,14.16c0-.55,.45-1,1-1h2c.55,0,1,.45,1,1s-.45,1-1,1h-2c-.55,0-1-.45-1-1Z"/><path id="Vector_512_Stroke_" class="cls-1" d="M6,10.16c0-.55,.45-1,1-1h2c.55,0,1,.45,1,1s-.45,1-1,1h-2c-.55,0-1-.45-1-1Z"/><path id="Vector_513_Stroke_" class="cls-1" d="M6,6.16c0-.55,.45-1,1-1h2c.55,0,1,.45,1,1s-.45,1-1,1h-2c-.55,0-1-.45-1-1Z"/></g></g></svg>